<?xml version="1.0" standalone="no"?>
<!DOCTYPE svg PUBLIC "-//W3C//DTD SVG 20010904//EN"
 "http://www.w3.org/TR/2001/REC-SVG-20010904/DTD/svg10.dtd">
<svg version="1.0" xmlns="http://www.w3.org/2000/svg"
 width="560.000000pt" height="560.000000pt" viewBox="0 0 560.000000 560.000000"
 preserveAspectRatio="xMidYMid meet">
<metadata>
Created by potrace 1.14, written by Peter Selinger 2001-2017
</metadata>
<g transform="translate(0.000000,560.000000) scale(0.100000,-0.100000)"
fill="#000000" stroke="none">
<path d="M1528 5165 c-2 -2 -86 -6 -188 -9 -184 -7 -215 -9 -320 -22 -30 -3
-66 -7 -80 -9 -37 -4 -122 -17 -145 -22 -67 -16 -101 -21 -107 -17 -5 3 -8 0
-8 -6 0 -6 -4 -9 -8 -6 -5 3 -32 -1 -61 -9 -28 -7 -54 -13 -56 -13 -3 -1 -31
-6 -63 -13 -31 -6 -61 -12 -67 -13 -5 -1 -19 -5 -30 -9 -11 -3 -31 -8 -45 -11
-43 -7 -94 -33 -127 -64 l-33 -31 0 -1985 0 -1986 31 -30 c30 -28 49 -36 74
-30 38 9 277 59 305 64 19 3 44 7 55 10 11 2 45 7 75 11 30 4 64 9 75 11 11 2
40 7 65 10 25 3 56 7 70 9 14 2 52 7 85 10 33 3 71 8 85 10 24 5 75 9 246 21
150 10 169 10 187 2 9 -5 17 -5 17 -1 0 4 19 7 42 6 86 -3 244 -13 268 -18 14
-2 43 -7 65 -10 130 -20 216 -44 329 -92 132 -55 271 -173 332 -281 76 -135
101 -172 129 -191 53 -36 140 -22 175 30 8 12 20 27 25 33 6 6 26 42 45 80 29
56 108 157 155 198 45 39 128 93 182 118 35 17 66 30 68 30 2 0 16 5 32 12 15
6 33 12 38 13 6 2 28 7 50 13 22 6 51 13 65 16 14 2 36 7 50 10 69 15 140 23
280 31 155 9 339 5 500 -10 167 -15 310 -32 340 -40 8 -2 38 -7 65 -10 28 -4
57 -8 65 -10 8 -3 33 -7 55 -10 42 -7 66 -11 101 -19 12 -2 38 -7 58 -10 19
-3 57 -11 83 -17 127 -28 204 -30 233 -4 l21 19 -4 1990 c-2 1095 -5 1998 -8
2006 -9 30 -20 39 -67 55 -26 10 -54 20 -62 23 -8 3 -19 6 -25 7 -5 2 -30 8
-55 15 -25 7 -52 14 -60 15 -40 9 -177 37 -195 41 -11 3 -31 7 -45 9 -14 2
-36 7 -50 10 -31 7 -79 16 -105 20 -82 13 -102 16 -121 20 -60 13 -201 18
-494 18 -383 1 -423 -2 -614 -48 -126 -30 -299 -109 -391 -178 -75 -55 -195
-174 -195 -192 0 -3 -16 -27 -35 -54 -19 -26 -35 -51 -35 -54 0 -3 -11 -22
-25 -43 l-24 -36 -18 36 c-9 20 -20 36 -25 36 -4 0 -8 6 -8 13 0 19 -130 175
-199 240 -112 103 -230 172 -375 216 -74 23 -92 27 -176 41 -99 16 -134 20
-238 25 -57 2 -106 6 -110 9 -4 2 -16 0 -26 -4 -11 -3 -37 -4 -58 0 -20 4 -39
6 -40 5z"/>
</g>
</svg>
